<svg xmlns="http://www.w3.org/2000/svg" viewBox="0 0 448 448" width="256" height="256">
  <circle cx="224" cy="224" r="224" fill="#25D366"/>
  <path fill="#fff" d="M334.1 285.9c-6.2-3.1-36.6-18-41.9-20-5.3-2-9.1-3.1-12.9 3.1-3.8 6.2-14.6 20-17.9 24.1-3.3 4.1-6.6 4.6-12.8 1.5-34.8-17.4-57.5-31-80.5-70.2-6.1-9.5 6.1-8.8 17.4-29 1.9-3.5.1-6.6-1.3-9.7-1.4-3.1-12.9-31.3-17.7-42.9-4.7-11.4-9.5-9.8-12.9-9.9-3.4-.1-7.3-.1-11.2-.1s-9.7 1.4-14.8 6.6c-5.1 5.2-19.4 19-19.4 46.4 0 27.4 19.9 53.9 22.7 57.6 2.8 3.7 39.3 60 95.2 84 55.9 24 55.9 16 66 15 10.1-1 31.3-12.8 35.7-25.2 4.4-12.5 4.4-23.1 3.1-25.2-1.3-2.1-4.8-3.4-11-6.4z"/>
  <path fill="#fff" d="M312.3 199.1c-4.4-2.2-26.1-13.6-28.9-15.1-2.8-1.5-4.8-2.2-6.9 1.1-2.1 3.3-8 12.8-9.8 15.5-1.8 2.7-3.6 3-6.7 1-3.1-2-13.1-4.8-25-15.4-9.3-8.5-15.6-19-17.4-22.1-1.8-3.1-.2-5.1 1.6-6.7 1.6-1.6 3.5-3.9 5.3-5.9 1.8-2 2.4-3.3 3.6-5.5 1.2-2.2.6-4-.3-5.6-.9-1.6-6.9-16.6-9.5-22.7-2.5-6.1-5.1-6.7-7-6.8-1.8-.1-3.9-.1-6-.1s-5 .7-7.6 3.6c-2.6 2.9-9.8 9.6-9.8 23.4s10 27.1 11.4 29c1.4 1.9 19.3 29.5 56.1 45.2 36.8 15.7 36.8 10.8 43.1 10 6.3-.8 20.4-8.2 23.3-16.2 2.9-8.1 2.9-15 2-16.4-0.9-1.4-3.2-2.4-7.5-4.4z"/>
</svg>